<?xml version="1.0" encoding="UTF-8"?>
<svg version="1.1" xmlns="http://www.w3.org/2000/svg" width="648" height="420">
<path d="M0,0 L648,0 L648,420 L0,420 Z M325,90 L316,105 L317,111 L331,135 L345,159 L361,186 L318,187 L308,204 L308,205 L393,205 L385,191 L370,164 L356,140 L341,114 L327,90 Z M313,110 L298,137 L284,161 L268,189 L254,214 L248,224 L248,226 L268,226 L283,200 L297,176 L312,150 L314,148 L327,170 L335,184 L356,184 L354,179 L339,152 L325,128 L315,111 Z M313,153 L303,170 L287,198 L272,224 L272,226 L404,226 L402,220 L395,208 L303,208 L319,180 L324,172 L323,168 L315,154 Z M175,266 L161,284 L147,303 L133,322 L128,329 L128,330 L143,330 L152,319 L156,313 L196,313 L208,329 L209,330 L224,330 L222,326 L208,307 L192,286 L178,267 Z M338,270 L338,282 L395,283 L367,300 L359,305 L359,306 L406,307 L409,310 L408,315 L407,316 L338,317 L338,330 L408,330 L416,326 L421,320 L422,318 L422,306 L418,299 L413,295 L404,293 L421,283 L423,278 L423,270 Z M440,270 L440,282 L506,283 L510,285 L511,289 L509,292 L506,293 L452,294 L446,298 L441,304 L440,307 L440,330 L524,330 L524,318 L453,318 L454,309 L458,307 L510,306 L519,302 L523,296 L524,293 L524,283 L521,277 L515,272 L511,270 Z M237,271 L237,330 L249,330 L250,295 L277,313 L282,312 L308,295 L308,330 L321,330 L321,271 L316,273 L296,287 L281,297 L276,296 L238,271 Z " fill="#000000" transform="translate(0,0)"/>
<path d="M0,0 L4,2 L10,10 L10,12 L-8,12 L-6,8 Z " fill="#000000" transform="translate(175,287)"/>
</svg>
