<?xml version="1.0" standalone="no"?>
<!DOCTYPE svg PUBLIC "-//W3C//DTD SVG 20010904//EN"
 "http://www.w3.org/TR/2001/REC-SVG-20010904/DTD/svg10.dtd">
<svg version="1.0" xmlns="http://www.w3.org/2000/svg"
 width="441.000000pt" height="141.000000pt" viewBox="0 0 441.000000 141.000000"
 preserveAspectRatio="xMidYMid meet">

<g transform="translate(0.000000,141.000000) scale(0.100000,-0.100000)"
fill="#000000" stroke="none">
<path d="M1509 1169 c-162 -132 -298 -245 -303 -250 -6 -5 26 -9 82 -9 l92 0
103 93 c56 51 110 98 119 106 11 8 -4 -36 -40 -118 l-56 -131 -741 -2 -740 -3
56 -32 56 -33 2133 0 2133 0 -39 35 -39 34 -1342 1 -1342 0 8 23 8 22 1309 5
1309 5 -29 23 -29 22 -1272 0 -1272 0 63 213 c36 116 66 218 69 225 2 6 3 12
1 12 -1 0 -135 -108 -297 -241z"/>
<path d="M240 736 c0 -2 83 -56 183 -121 101 -65 194 -125 205 -134 22 -16 18
-20 -215 -211 -243 -199 -320 -250 -379 -250 -19 0 -34 -4 -34 -10 0 -6 105
-10 295 -10 162 0 295 4 295 8 0 5 -10 13 -22 19 -24 11 -35 -3 192 240 l77
81 269 -174 c148 -95 272 -173 276 -174 3 0 11 23 18 50 l12 50 1286 0 1287 1
40 24 40 25 -1317 0 c-725 0 -1318 2 -1318 4 0 3 4 16 10 30 l10 26 1381 0
1382 0 36 23 36 22 -106 5 -106 5 54 200 c30 109 55 200 56 202 2 1 33 5 70 9
57 6 70 4 87 -11 11 -10 20 -26 20 -37 0 -36 16 -17 30 35 7 28 15 58 17 65 4
9 -416 12 -2081 12 -1147 0 -2086 -2 -2086 -4z m1178 -64 c-1 -5 -34 -79 -72
-165 l-69 -155 -321 160 c-177 88 -323 162 -325 164 -2 2 175 4 393 4 219 0
396 -4 394 -8z m328 -9 c-5 -21 -79 -297 -96 -360 l-11 -43 -88 0 -88 0 59
198 c32 108 61 203 63 210 3 8 29 12 85 12 73 0 81 -2 76 -17z m233 -130 c-21
-82 -46 -176 -55 -210 l-16 -63 -73 0 -73 0 39 148 c22 81 47 175 55 210 l16
62 73 0 74 0 -40 -147z m429 135 c20 -20 14 -65 -12 -95 -24 -28 -26 -28 -157
-32 l-132 -3 7 33 c3 18 11 50 17 71 l10 38 127 0 c86 0 132 -4 140 -12z m238
-5 c-2 -10 -25 -97 -51 -193 -25 -96 -48 -183 -51 -193 -5 -15 -15 -17 -56
-15 l-51 3 -38 89 c-22 49 -39 92 -39 96 0 3 21 12 47 18 77 21 143 109 143
191 0 19 6 21 51 21 43 0 50 -2 45 -17z m388 11 c25 -10 20 -61 -9 -89 -23
-24 -29 -25 -153 -25 l-130 0 15 60 15 60 123 0 c68 0 130 -3 139 -6z m252
-24 c-38 -34 -50 -64 -91 -228 -24 -96 -25 -106 -10 -134 8 -17 15 -33 15 -35
0 -1 -41 -3 -91 -3 l-91 0 45 44 c72 69 87 150 37 196 l-31 29 31 18 c36 21
65 64 75 111 l7 32 69 0 70 0 -35 -30z m560 -1 l-6 -31 35 31 c33 29 41 31
110 31 65 0 75 -2 75 -17 -1 -10 -25 -106 -54 -213 l-53 -195 -173 -3 -173 -2
36 39 c20 22 41 57 46 78 6 21 22 79 36 128 29 105 31 133 9 163 l-15 22 67 0
67 0 -7 -31z m-228 -53 c6 -28 -48 -224 -67 -248 -15 -18 -28 -20 -126 -19
-76 1 -114 6 -123 15 -11 10 -7 33 19 127 17 63 38 122 47 132 14 15 31 17
131 15 105 -3 116 -5 119 -22z m-623 -152 c21 -21 12 -60 -21 -94 -23 -24 -31
-25 -159 -28 -74 -2 -135 -1 -135 3 0 4 8 36 17 71 l17 64 132 0 c110 0 135
-3 149 -16z m-733 -88 c21 -50 38 -91 38 -93 0 -2 -61 -3 -136 -3 -124 0 -135
1 -130 18 3 9 10 37 16 62 6 25 16 60 21 78 l11 33 71 -3 71 -3 38 -89z"/>
</g>
</svg>
