<?xml version="1.0" encoding="utf-8"?>
<svg xmlns="http://www.w3.org/2000/svg" viewBox="0.7431 0.3233 401.33 214.72" width="401.33px" height="214.72px"><defs><style type="text/css">
	.st0{ fill:transparent; }
	.st1{ fill:#FFFFFF; }
	.st2{ fill:none; }
</style></defs><g transform="matrix(1, 0, 0, 1, -105.98694005589093, -175.6066768110793)" id="object-0"><polygon class="st1" points="257.47,314.76 257.47,238.51 332.2,192.8 303.91,175.93 226.66,221.38 226.66,296.58 &#9;" style="fill: rgb(0, 0, 0);"/><polygon class="st1" points="356.58,207.19 280.84,253.09 280.84,284.55 328.64,254.95 328.36,280.02 280.84,309.46 280.84,328.55 &#10;&#9;&#9;310.28,345.92 347.76,323.26 347.76,221.92 370.07,235.78 370.07,310.25 388.12,299.33 388.12,225.92 &#9;" style="fill: rgb(0, 0, 0);"/><polygon class="st1" points="135.41,363.27 114.16,363.27 114.16,368.58 129.96,368.58 127.68,376.02 114.16,376.02 114.16,388.76 &#10;&#9;&#9;106.73,388.76 106.73,355.83 135.41,355.83 &#9;" style="fill: rgb(0, 0, 0);"/><polygon class="st1" points="171.52,388.76 142.84,388.76 142.84,354.77 150.28,354.77 150.28,381.33 171.52,381.33 &#9;" style="fill: rgb(0, 0, 0);"/><polygon class="st1" points="215.09,388.76 195.18,388.76 191.93,381.33 202.61,381.33 196.81,368.23 187.72,388.76 178.67,388.76 &#10;&#9;&#9;193.73,354.77 200.04,354.77 &#9;" style="fill: rgb(0, 0, 0);"/><path class="st1" d="M253.56,379.2c0,2.93-1.04,5.43-3.11,7.51c-2.08,2.07-4.58,3.11-7.51,3.11h-21.49v-8.5h21.01 c0.74,0,1.37-0.26,1.89-0.77c0.51-0.51,0.77-1.14,0.77-1.88c0-0.74-0.26-1.37-0.77-1.88c-0.52-0.51-1.14-0.77-1.89-0.77H232.4 c-2.69,0-5.34-0.95-7.27-2.83c-2.36-2.29-3.36-5.14-3.01-8.55c0.18-1.75,0.86-3.42,1.95-4.8c2.14-2.67,4.83-4.01,8.07-4.01h21.21 l-3.25,7.43H232.3c-0.74,0-1.37,0.26-1.88,0.77c-0.52,0.52-0.77,1.14-0.77,1.88c0,0.74,0.26,1.37,0.77,1.88 c0.51,0.51,1.14,0.77,1.88,0.77h10.58c2.43,0,4.84,0.76,6.7,2.32C252.23,373.12,253.56,375.89,253.56,379.2" style="fill: rgb(0, 0, 0);"/><path class="st1" d="M268.19,388.76h-7.44v-33.99h7.44V388.76z M291.55,388.76h-7.44v-12.75h-14.4l3.25-7.44h11.15v-13.81h7.44 V388.76z" style="fill: rgb(0, 0, 0);"/><path class="st1" d="M323.42,388.76h-7.44v-33.99h7.44V388.76z M346.79,388.76h-7.44v-12.75h-14.4l3.25-7.44h11.15v-13.81h7.44 V388.76z" style="fill: rgb(0, 0, 0);"/><path class="st1" d="M432.53,378.32c0,2.88-1.02,5.34-3.06,7.38c-2.04,2.04-4.5,3.06-7.38,3.06h-21.12v-33.99h21.12 c2.88,0,5.34,1.02,7.38,3.06c2.04,2.04,3.06,4.5,3.06,7.38c0,2.07-0.94,4.26-2.82,6.56C431.59,374.07,432.53,376.25,432.53,378.32 M425.4,378.67c0-0.74-0.26-1.37-0.77-1.89c-0.52-0.51-1.14-0.77-1.88-0.77h-12.53l3.25-7.44h9.28c0.74,0,1.37-0.26,1.88-0.77 c0.51-0.51,0.77-1.14,0.77-1.88c0-0.74-0.26-1.37-0.77-1.89c-0.52-0.51-1.14-0.77-1.88-0.77h-13.28v18.06h13.28 c0.74,0,1.37-0.26,1.88-0.77C425.14,380.04,425.4,379.41,425.4,378.67" style="fill: rgb(0, 0, 0);"/><path class="st1" d="M471.83,378.32c0,2.88-1.02,5.34-3.06,7.38c-2.04,2.04-4.5,3.06-7.38,3.06h-21.12v-33.99h21.12 c2.88,0,5.34,1.02,7.38,3.06c2.04,2.04,3.06,4.5,3.06,7.38c0,2.07-0.94,4.26-2.81,6.56C470.89,374.07,471.83,376.25,471.83,378.32 M463.64,378.67c0-0.74-0.26-1.37-0.77-1.89c-0.52-0.51-1.14-0.77-1.88-0.77h-12.43l3.25-7.44h9.18c0.74,0,1.37-0.26,1.88-0.77 c0.51-0.51,0.77-1.14,0.77-1.88c0-0.74-0.26-1.37-0.77-1.89c-0.52-0.51-1.14-0.77-1.88-0.77H447.7v18.06h13.28 c0.74,0,1.37-0.26,1.88-0.77C463.38,380.04,463.64,379.41,463.64,378.67" style="fill: rgb(0, 0, 0);"/><polygon class="st1" points="508.06,354.77 495.5,372.98 495.5,388.76 488.07,388.76 488.07,372.98 475.51,354.77 484.82,354.77 &#10;&#9;&#9;491.78,364.97 498.76,354.77 &#9;" style="fill: rgb(0, 0, 0);"/><path class="st1" d="M379.65,361.72c17.82,0.91,5.2,25.18-9.28,27.48C394.84,394,410.82,354.4,379.65,361.72" style="fill: rgb(0, 0, 0);"/><path class="st1" d="M378.74,383.09c-24.88,6.54-15.42-24.36,4.79-24.75c-1.96-0.32-3.74-0.36-5.44-0.27l0.18-0.07l0.17-3.47 c-2.83,0.01-5.54,0.42-8.06,1.18l0.54,4.03c-1.16,0.52-2.24,1.16-3.28,1.87l-2.99-3.43c-2.51,1.47-4.67,3.32-6.37,5.46l3.39,3.43 c-1,1.32-1.8,2.65-2.42,3.95l-4.71-0.77c-0.43,1.52-0.66,3.1-0.66,4.72c0,1,0.09,1.97,0.25,2.93l3.45-0.01 c0.01,1.76,0.38,3.37,1.06,4.75l-2.25,2c1.39,2.29,3.28,4.32,5.54,6.01l2.37-3.3C368.07,388.39,373.12,387.34,378.74,383.09" style="fill: rgb(0, 0, 0);"/></g></svg>