<?xml version="1.0" encoding="UTF-8" standalone="no"?>
<!-- Creator: CorelDRAW X6 -->

<svg
   xml:space="preserve"
   width="609.97797"
   height="94.072441"
   version="1.1"
   style="clip-rule:evenodd;fill-rule:evenodd;image-rendering:optimizeQuality;shape-rendering:geometricPrecision;text-rendering:geometricPrecision"
   viewBox="0 0 16139 2488.9999"
   id="svg5"
   sodipodi:docname="flycolor2.svg"
   inkscape:version="1.4.2 (ebf0e940d0, 2025-05-08)"
   xmlns:inkscape="http://www.inkscape.org/namespaces/inkscape"
   xmlns:sodipodi="http://sodipodi.sourceforge.net/DTD/sodipodi-0.dtd"
   xmlns="http://www.w3.org/2000/svg"
   xmlns:svg="http://www.w3.org/2000/svg"><sodipodi:namedview
   id="namedview5"
   pagecolor="#505050"
   bordercolor="#eeeeee"
   borderopacity="1"
   inkscape:showpageshadow="0"
   inkscape:pageopacity="0"
   inkscape:pagecheckerboard="0"
   inkscape:deskcolor="#505050"
   inkscape:document-units="mm"
   inkscape:zoom="1.460248"
   inkscape:cx="236.94605"
   inkscape:cy="51.703546"
   inkscape:window-width="3440"
   inkscape:window-height="1368"
   inkscape:window-x="0"
   inkscape:window-y="0"
   inkscape:window-maximized="1"
   inkscape:current-layer="0020_1" />
 <defs
   id="defs1"><style
     type="text/css"
     id="style1">
   <![CDATA[
    .fil1 {fill:currentColor}
    .fil2 {fill:#D93F2F}
    .fil0 {fill:currentColor;fill-rule:nonzero}
   ]]>
  </style></defs>
 <g
   id="0020_1"
   inkscape:label="0020_1"
   inkscape:groupmode="layer"
   transform="translate(-8585,-9137)">
  <metadata
   id="CorelCorpID_0Corel-Layer" />
  <g
   id="_165673568">
   <path
   class="fil0"
   d="m 24371,9261 c 97,0 185,39 249,103 v 0 c 64,64 104,152 104,250 0,98 -40,186 -104,250 v 0 c -64,64 -152,103 -249,103 -97,0 -185,-39 -249,-103 v 0 c -64,-64 -104,-152 -104,-250 0,-98 40,-186 104,-250 64,-64 152,-103 249,-103 z m 211,145 c -54,-54 -128,-87 -211,-87 -82,0 -157,33 -211,87 -54,53 -87,127 -87,208 0,81 33,155 87,208 v 0 c 54,54 128,87 211,87 82,0 157,-33 211,-87 v 0 c 53,-53 87,-127 87,-208 0,-81 -33,-155 -87,-208 z"
   id="path1" />
   <path
   class="fil0"
   d="m 24239,9792 v -366 h 156 c 39,0 68,3 85,10 18,7 32,18 43,35 11,17 16,36 16,58 0,27 -8,50 -24,68 -16,18 -40,29 -73,34 16,9 29,20 40,31 10,11 24,31 42,59 l 45,72 h -88 l -53,-80 c -19,-29 -32,-46 -39,-54 -7,-7 -14,-12 -22,-15 -8,-3 -20,-4 -37,-4 h -15 v 153 h -74 z m 74,-211 h 55 c 35,0 58,-2 67,-5 9,-3 16,-8 21,-15 5,-7 8,-16 8,-27 0,-12 -3,-22 -10,-30 -7,-8 -16,-12 -28,-14 -6,-1 -24,-1 -54,-1 h -58 v 93 z"
   id="path2" />
   <path
   class="fil1"
   d="m 12036,10309 h 732 c 12,0 23,10 23,23 v 101 c 0,12 -10,23 -23,23 h -732 c -12,0 -23,-10 -23,-23 v -101 c 0,-12 10,-23 23,-23 z m 3077,-609 h 411 c 9,0 16,4 20,12 4,8 4,16 -1,23 l -479,722 -10,15 c -4,7 -11,10 -19,10 -8,0 -15,-4 -19,-10 l -205,-309 c -5,-8 -5,-17 0,-25 l 283,-427 c 4,-7 11,-10 19,-10 z m 3086,147 c 92,0 169,66 186,153 v 767 c -17,87 -94,153 -186,153 h -125 c -12,0 -23,10 -23,23 v 101 c 0,12 10,23 23,23 h 333 26 65 c 194,0 351,-157 351,-351 v -663 c 0,-194 -157,-351 -351,-351 h -65 -26 -333 c -12,0 -23,10 -23,23 v 101 c 0,12 10,23 23,23 h 125 z m -282,-147 h -333 -17 -74 c -194,0 -351,157 -351,351 v 663 c 0,194 157,351 351,351 h 37 54 333 c 12,0 23,-10 23,-23 v -101 c 0,-12 -10,-23 -23,-23 h -125 c -92,0 -169,-66 -186,-153 v -767 c 17,-87 94,-153 186,-153 h 125 c 12,0 23,-10 23,-23 v -101 c 0,-12 -10,-23 -23,-23 z m 3607,147 c 92,0 169,66 186,153 v 767 c -17,87 -94,153 -186,153 h -125 c -12,0 -23,10 -23,23 v 101 c 0,12 10,23 23,23 h 333 26 65 c 194,0 351,-157 351,-351 v -663 c 0,-194 -157,-351 -351,-351 h -65 -26 -333 c -12,0 -23,10 -23,23 v 101 c 0,12 10,23 23,23 h 125 z m -282,-147 h -333 -17 -74 c -194,0 -351,157 -351,351 v 663 c 0,194 157,351 351,351 h 37 54 333 c 12,0 23,-10 23,-23 v -101 c 0,-12 -10,-23 -23,-23 h -125 c -92,0 -169,-66 -186,-153 v -767 c 17,-87 94,-153 186,-153 h 125 c 12,0 23,-10 23,-23 v -101 c 0,-12 -10,-23 -23,-23 z m -6848,0 h -411 c -9,0 -16,4 -20,12 -4,8 -4,16 1,23 l 550,829 c 2,3 4,5 7,6 v 472 c 0,12 10,23 23,23 h 420 c 12,0 23,-10 23,-23 v -461 0 0 0 0 0 0 -1 0 c 0,-4 -2,-8 -4,-11 l -24,-37 -545,-821 c -4,-7 -11,-10 -19,-10 z m 8697,835 356,520 c 4,6 11,10 19,10 h 410 c 9,0 16,-4 20,-12 4,-8 4,-16 -1,-23 l -339,-495 h 22 c 194,0 351,-141 351,-335 v -161 c 0,-194 -157,-339 -351,-339 h -72 -19 -686 -91 -103 -226 c -12,0 -23,10 -23,23 v 328 663 328 c 0,12 10,23 23,23 h 328 91 c 12,0 23,-10 23,-23 V 9846 h 454 c 92,0 169,66 186,153 v 237 c -17,87 -94,153 -186,153 h -319 c -12,0 -23,10 -23,23 v 101 c 0,12 10,23 23,23 h 133 z m -4057,-484 v -328 c 0,-12 10,-23 23,-23 h 328 91 c 12,0 23,10 23,23 v 564 479 c 17,87 94,153 186,153 h 690 c 12,0 23,10 23,23 v 101 c 0,12 -10,23 -23,23 h -899 -46 -46 c -194,0 -351,-157 -351,-351 v -427 -235 z m -2757,-204 c -92,0 -169,66 -186,153 v 767 c 17,87 94,153 186,153 h 690 c 12,0 23,10 23,23 v 101 c 0,12 -10,23 -23,23 h -899 -12 -80 c -194,0 -351,-157 -351,-351 v -663 c 0,-194 157,-351 351,-351 h 32 59 899 c 12,0 23,10 23,23 v 101 c 0,12 -10,23 -23,23 h -690 z m -3303,204 v -328 c 0,-12 10,-23 23,-23 h 328 91 c 12,0 23,10 23,23 v 564 479 c 17,87 94,153 186,153 h 690 c 12,0 23,10 23,23 v 101 c 0,12 -10,23 -23,23 h -899 -10 -81 c -194,0 -351,-157 -351,-351 v -427 -235 z m -1547,663 v 328 c 0,12 10,23 23,23 h 328 91 c 12,0 23,-10 23,-23 v -564 -479 c 17,-87 94,-153 186,-153 h 690 c 12,0 23,-10 23,-23 v -101 c 0,-12 -10,-23 -23,-23 h -899 -91 -22 c -3,0 -5,0 -7,1 -180,15 -322,166 -322,350 v 427 235 z"
   id="path3" />
   <g
   id="g5">
    <path
   class="fil1"
   d="m 9441,11564 c 123,40 253,62 390,62 687,0 1245,-557 1245,-1245 0,-320 -120,-611 -318,-831 -6,-7 -12,-13 -18,-19 -11,-12 -22,-23 -33,-34 -65,20 -218,107 -391,475 -24,55 -49,110 -71,166 -29,80 22,92 74,92 h 18 469 l -73,202 c -54,149 -70,163 -274,163 h -183 c -163,0 -203,73 -242,158 -84,229 -161,396 -232,516 -85,145 -211,269 -360,297 z"
   id="path4" />
    <path
   class="fil2"
   d="m 9830,9137 c 260,0 501,80 701,216 -211,7 -522,153 -773,876 -245,4 -251,104 -364,365 h 244 c -147,420 -283,669 -395,815 -54,27 -94,14 -113,3 -50,-34 -98,-72 -142,-113 -248,-228 -403,-554 -403,-917 0,-688 557,-1245 1245,-1245 z"
   id="path5" />
   </g>
  </g>
 </g>
</svg>
