<?xml version="1.0" encoding="UTF-8" standalone="no"?><!DOCTYPE svg PUBLIC "-//W3C//DTD SVG 1.1//EN" "http://www.w3.org/Graphics/SVG/1.1/DTD/svg11.dtd"><svg width="100%" height="100%" viewBox="0 0 180 60" version="1.1" xmlns="http://www.w3.org/2000/svg" xmlns:xlink="http://www.w3.org/1999/xlink" xml:space="preserve" xmlns:serif="http://www.serif.com/" style="fill-rule:evenodd;clip-rule:evenodd;stroke-linejoin:round;stroke-miterlimit:2;"><rect id="flytex_logo_white" x="0" y="0" width="180" height="60" style="fill:none;"/><g id="flytex-logo"><path id="Logo" d="M24.027,33.297l9.317,0c-0.261,4.248 -4.325,6.871 -8.319,6.871l-9.984,0c0.563,-3.09 4.327,-6.883 8.986,-6.871Zm-5.552,-9.752l31.95,-0c-0.287,4.162 -3.765,7.032 -7.994,7.027l-31.944,0c0.476,-2.988 2.995,-7.027 7.988,-7.027Zm11.507,-9.927l22.001,0c-0.305,4.249 -2.948,7.23 -9.269,7.202l-22.504,-0c0.563,-3.09 4.595,-7.202 9.772,-7.202Z" style="fill:#fff;"/><path id="Flytex" d="M109.224,20.668l-16.047,26.975l-4.28,0l5.249,-8.221l-6.387,-18.754l4.323,0l4.738,14.59l8.23,-14.59l4.174,0Zm26.771,20.165c-3.79,0 -6.626,-0.885 -8.507,-2.655c-1.88,-1.77 -2.625,-4.284 -2.232,-7.542c0.386,-3.211 1.709,-5.766 3.968,-7.666c2.259,-1.899 5.028,-2.849 8.307,-2.849c1.477,0 2.762,0.177 3.855,0.529c1.093,0.353 2.02,0.906 2.781,1.659c0.762,0.753 1.304,1.673 1.627,2.761c0.323,1.088 0.39,2.42 0.2,3.996l-0.216,1.799l-16.483,0c-0.276,2.294 0.209,4.046 1.454,5.258c1.246,1.211 3.096,1.817 5.552,1.817c0.88,0 1.753,-0.082 2.617,-0.247c0.865,-0.165 1.653,-0.376 2.366,-0.635c0.757,-0.271 1.399,-0.532 1.926,-0.785c0.527,-0.253 0.968,-0.491 1.321,-0.715l0.234,0l-0.435,3.617c-0.487,0.153 -1.092,0.344 -1.815,0.573c-0.724,0.23 -1.37,0.409 -1.939,0.539c-0.802,0.176 -1.525,0.311 -2.168,0.405c-0.643,0.094 -1.447,0.141 -2.413,0.141Zm-17.709,-0.07c-2.186,-0 -3.827,-0.515 -4.924,-1.544c-1.097,-1.029 -1.512,-2.655 -1.244,-4.878l1.315,-10.921l-2.705,0l0.332,-2.752l2.704,0l0.682,-5.663l4.004,-0l-0.682,5.663l7.368,0l-0.332,2.752l-7.368,0l-1.128,9.368c-0.12,1 -0.192,1.771 -0.214,2.312c-0.023,0.541 0.079,1.046 0.307,1.517c0.191,0.412 0.545,0.72 1.059,0.926c0.515,0.206 1.234,0.309 2.157,0.309c0.653,-0 1.294,-0.08 1.924,-0.238c0.629,-0.159 1.085,-0.291 1.368,-0.397l0.234,-0l-0.359,2.981c-0.774,0.177 -1.554,0.315 -2.339,0.415c-0.786,0.1 -1.505,0.15 -2.159,0.15Zm48.877,-0.388l-4.92,-0l-4.874,-7.445l-6.838,7.445l-4.536,-0l9.44,-9.774l-6.981,-9.933l4.919,0l4.84,7.375l6.766,-7.375l4.557,0l-9.389,9.703l7.016,10.004Zm-87.577,-23.652l-14.758,0l-0.892,7.41l14.14,0l-0.374,3.105l-14.14,0l-1.572,12.93l-4.216,0l3.212,-26.55l18.974,0l-0.374,3.105Zm3.886,23.445l-4.004,0l3.197,-26.55l4.004,0l-3.197,26.55Zm58.715,-11.843c0.079,-0.894 0.044,-1.664 -0.105,-2.311c-0.15,-0.647 -0.41,-1.194 -0.782,-1.641c-0.409,-0.494 -0.964,-0.87 -1.664,-1.129c-0.7,-0.259 -1.589,-0.388 -2.668,-0.388c-1.065,-0 -1.986,0.132 -2.763,0.397c-0.777,0.264 -1.502,0.65 -2.173,1.155c-0.659,0.518 -1.182,1.091 -1.57,1.72c-0.388,0.63 -0.675,1.362 -0.861,2.197l12.586,-0Z" style="fill:#fff;fill-rule:nonzero;"/></g></svg>