<?xml version="1.0"?>
<svg width="94" height="32" viewBox="0 0 94 32" xmlns="http://www.w3.org/2000/svg" xmlns:svg="http://www.w3.org/2000/svg" version="1.1">
 <g class="layer">
  <g id="layer2" transform="translate(0.546507 0.488658) matrix(2.84365 0 0 2.84365 -9.12059 -6.93384)">
   <g font-family="&#x27;PT Sans&#x27;" font-size="91.56px" font-style="italic" font-weight="bold" id="text40562" stroke-width="8.58" transform="matrix(0.991716 0 0 1.00835 0 14.9232) matrix(0.0354888 0 0 0.0349033 24.0376 -8.05917)"/>
   <g font-family="&#x27;PT Sans&#x27;" font-size="208.47px" font-style="italic" font-weight="bold" id="text36590-8" stroke-width="6.51" transform="matrix(1.03842 0 0 0.963004 5.63486 -0.00912569) matrix(0.0354888 0 0 0.0349033 17.7227 6.52612)">
    <path d="m-134.69,-26.67l-9.8,0l-13.14,62.33l-27.1,0l30.86,-145.93l27.1,0l-13.76,64.62l6.46,-2.29l49.41,-62.33l32.52,0l-52.54,61.91l-12.5,7.3l9.17,8.13l31.69,68.59l-30.23,0l-28.14,-62.33z" id="path896"/>
    <path d="m-26.97,-110.27l26.9,0l-30.86,145.93l-26.89,0l30.85,-145.93z" id="path898"/>
    <path d="m97.35,-80.88q-3.96,-2.5 -11.67,-5q-7.72,-2.71 -17.1,-2.71q-4.79,0 -9.38,1.04q-4.58,0.84 -8.13,2.92q-3.54,2.09 -5.63,5.42q-2.08,3.34 -2.08,7.92q0,6.05 3.75,10.22q3.75,4.17 9.38,7.92q5.84,3.54 12.3,7.3q6.67,3.75 12.3,8.75q5.84,5.01 9.59,12.09q3.75,6.88 3.75,17.1q0,12.3 -4.37,21.26q-4.17,8.76 -12.1,14.39q-7.71,5.62 -18.76,8.13q-10.84,2.71 -24.18,2.71q-7.3,0 -13.97,-0.84q-6.46,-0.83 -12.09,-2.08q-5.63,-1.25 -10.01,-2.71q-4.16,-1.67 -6.67,-3.13l13.97,-24.18q2.09,1.25 5.42,2.71q3.34,1.46 7.51,2.71q4.37,1.25 9.38,2.08q5,0.84 10,0.84q5.84,0 11.05,-0.84q5.21,-1.04 8.97,-3.12q3.96,-2.3 6.04,-5.63q2.3,-3.34 2.3,-8.34q0,-5.63 -3.76,-9.59q-3.75,-3.96 -9.59,-7.51q-5.62,-3.54 -12.3,-7.29q-6.46,-3.96 -12.3,-9.18q-5.62,-5.21 -9.38,-12.5q-3.75,-7.51 -3.75,-18.14q0,-12.09 4.17,-20.64q4.38,-8.55 11.67,-13.97q7.3,-5.42 17.1,-7.92q9.8,-2.5 21.05,-2.5q6.05,0 12.1,0.63q6.04,0.62 11.46,1.87q5.42,1.04 10.01,2.71q4.58,1.46 7.71,3.34l-13.76,23.76z" id="path900"/>
    <path d="m203.62,-80.88q-3.96,-2.5 -11.67,-5q-7.71,-2.71 -17.09,-2.71q-4.8,0 -9.39,1.04q-4.58,0.84 -8.13,2.92q-3.54,2.09 -5.63,5.42q-2.08,3.34 -2.08,7.92q0,6.05 3.75,10.22q3.76,4.17 9.38,7.92q5.84,3.54 12.3,7.3q6.67,3.75 12.3,8.75q5.84,5.01 9.59,12.09q3.76,6.88 3.76,17.1q0,12.3 -4.38,21.26q-4.17,8.76 -12.09,14.39q-7.72,5.62 -18.77,8.13q-10.84,2.71 -24.18,2.71q-7.3,0 -13.97,-0.84q-6.46,-0.83 -12.09,-2.08q-5.63,-1.25 -10,-2.71q-4.17,-1.67 -6.68,-3.13l13.97,-24.18q2.09,1.25 5.42,2.71q3.34,1.46 7.51,2.71q4.38,1.25 9.38,2.08q5,0.84 10.01,0.84q5.83,0 11.04,-0.84q5.22,-1.04 8.97,-3.12q3.96,-2.3 6.04,-5.63q2.3,-3.34 2.3,-8.34q0,-5.63 -3.76,-9.59q-3.75,-3.96 -9.58,-7.51q-5.63,-3.54 -12.3,-7.29q-6.47,-3.96 -12.3,-9.18q-5.63,-5.21 -9.39,-12.5q-3.75,-7.51 -3.75,-18.14q0,-12.09 4.17,-20.64q4.38,-8.55 11.68,-13.97q7.29,-5.42 17.09,-7.92q9.8,-2.5 21.06,-2.5q6.04,0 12.09,0.63q6.04,0.62 11.46,1.87q5.42,1.04 10.01,2.71q4.59,1.46 7.71,3.34l-13.76,23.76z" id="path902"/>
   </g>
   <g font-family="&#x27;PT Sans&#x27;" font-size="208.47px" font-style="italic" font-weight="bold" id="text36590" stroke-width="6.51" transform="matrix(1.03842 0 0 0.963004 5.63486 -0.00912569) matrix(0.0354888 0 0 0.0349033 17.7227 6.52612)">
    <path d="m-114.05,62.2l25.43,0l-19.8,94.23q-3.13,15.01 -8.13,25.43q-5,10.21 -12.09,16.68q-7.09,6.46 -16.68,9.38q-9.59,2.71 -22.1,2.71q-12.09,0 -20.43,-2.71q-8.34,-2.92 -13.76,-8.13q-5.21,-5.21 -7.71,-12.3q-2.29,-7.09 -2.29,-15.64q0,-4.17 0.41,-8.55q0.63,-4.37 1.67,-9.17l19.6,-91.93l26.89,0l-19.18,91.72q-1.67,7.93 -1.67,12.93q0,10.01 5.22,14.17q5.21,4.17 15.21,4.17q12.51,0 19.39,-7.29q6.88,-7.3 10.42,-23.56l19.6,-92.14z" id="path960"/>
    <path d="m-7.4,208.13l-60.67,0l-27.1,0l30.85,-145.93l27.11,0l-25.65,120.49l60.67,0l-5.21,25.44z" id="path962"/>
    <path d="m106.02,87.63l-40.44,0l-25.64,120.5l-26.89,0l25.43,-120.5l-40.44,0l5.42,-25.43l107.78,0l-5.22,25.43z" id="path964"/>
    <path d="m126.85,63.66q10,-1.88 20.22,-2.71q10.21,-0.84 18.34,-0.84q9.59,0 18.14,2.29q8.55,2.3 14.8,7.09q6.26,4.59 9.8,12.09q3.75,7.3 3.75,17.31q0,11.46 -3.54,20.01q-3.34,8.34 -8.97,14.18q-5.62,5.63 -12.92,8.96q-7.09,3.13 -14.59,4.17l8.13,6.46l20.22,55.46l-30.02,0l-20.02,-57.12l-14.38,-2.72l-12.51,59.84l-27.1,0l30.65,-144.47zm13.13,65.25l11.05,0q6.04,0 11.88,-1.05q5.84,-1.25 10.22,-4.16q4.58,-3.13 7.29,-8.14q2.92,-5 2.92,-12.71q0,-7.09 -4.79,-12.09q-4.8,-5.21 -15.43,-5.21q-4.17,0 -7.92,0.41q-3.55,0.21 -6.05,0.63l-9.17,42.32z" id="path966"/>
    <path d="m287.12,175.81l-42.52,0l-17.31,32.32l-28.77,0l81.1,-146.98l20.01,0l18.97,146.98l-27.31,0l-4.17,-32.32zm-30.64,-22.93l29.6,0l-3.33,-32.52l0.2,-22.93l-1.04,0l-8.34,23.14l-17.09,32.31z" id="path968"/>
   </g>
   <g id="g28276" transform="matrix(0.059105 -0.00252405 -0.00254282 -0.0586683 12.76 8.50583)">
    <path d="m0,0l-44.56,-32.37l0,-48.23l90.43,65.7l-45.87,14.9z" fill="#000000" fill-rule="nonzero" id="path28278"/>
   </g>
   <path d="m8.18,11.06l-3.26,0l-1.68,2.29l6.61,0l-1.68,-2.29l0.01,0z" fill="#000000" fill-rule="nonzero" id="path28274"/>
   <g id="g28268" transform="matrix(1.6629 -0.117813 -0.116731 -1.67831 -256.472 -76.2002) matrix(0.035486 -0.0000409017 -0.0000409017 0.0349062 158.972 -58.7171)">
    <path d="m0,0l-17.02,-52.38l28.35,-39.02l34.54,106.31l-45.87,-14.91z" fill="#000000" fill-rule="nonzero" id="path28270"/>
   </g>
   <g font-size="300.71px" id="text9484" stroke-width="7.52" transform="scale(0.991716 1.00835) matrix(0.0354888 0 0 0.0349033 24.0376 6.22388)"/>
  </g>
 </g>
</svg>