<svg id="图层_1" data-name="图层 1" xmlns="http://www.w3.org/2000/svg" viewBox="0 0 578.37 126.22"><defs><style>.cls-1{fill-rule:evenodd;}</style></defs><path d="M8.15,484.63l16.63-47.58H62.23l8.32,11.89-6.23,17.84H56l6.22,17.85H45.6l-6.28-17.85H31l-6.23,17.85Zm43.67-29.74,2.09-5.95H37.28l-2.09,5.95Z" transform="translate(-8.15 -358.41)"/><path d="M62.23,484.63l12.46-35.69,16.68-11.89h24.95l8.32,11.89-12.46,35.69H95.5l4.18-11.9H83l-4.13,11.9Zm41.59-23.79,4.18-11.9H91.37l-4.18,11.9Z" transform="translate(-8.15 -358.41)"/><path d="M116.32,484.63,133,437.05h37.46l8.31,11.89-8.31,23.79-16.64,11.9Zm37.45-11.9,8.32-23.79H145.45l-8.36,23.79Z" transform="translate(-8.15 -358.41)"/><path d="M170.41,484.63,187,437.05h16.64L187,484.63Z" transform="translate(-8.15 -358.41)"/><path d="M203.68,484.63l-8.32-11.9,8.32-23.79,16.68-11.89h24.95l8.32,11.89-8.32,23.79-16.63,11.9Zm25-11.9L237,448.94H220.36L212,472.73Z" transform="translate(-8.15 -358.41)"/><path d="M245.31,484.63,262,437.05h8.31l12.5,17.84,25-17.84h12.5l-16.64,47.58H286.9l8.36-23.79-16.68,11.89-8.32-11.89L262,484.63Z" transform="translate(-8.15 -358.41)"/><path d="M307.76,484.63l12.46-35.69,16.68-11.89h25l8.32,11.89-12.46,35.69H341l4.18-11.9H328.53l-4.13,11.9Zm41.59-23.79,4.18-11.9H336.9l-4.19,11.9Z" transform="translate(-8.15 -358.41)"/><path d="M361.85,484.63l4.13-11.9H399.3l2.09-6H374.3l-4.13-5.94,4.13-11.9L391,437.05h37.45l-4.18,11.89H391l-2.09,5.95h27.05l4.18,5.95-4.18,11.89-16.64,11.9Z" transform="translate(-8.15 -358.41)"/><path d="M432.57,484.63l12.5-35.69H428.39l4.18-11.89h49.95l-4.18,11.89H461.7l-12.5,35.69Z" transform="translate(-8.15 -358.41)"/><path d="M470,484.63l16.64-47.58h49.95l-4.18,11.89H499.16l-2.09,5.95h33.31l-4.18,11.89H492.88l-2.09,6h33.32L520,484.63Z" transform="translate(-8.15 -358.41)"/><path d="M524.11,484.63l16.63-47.58H578.2l8.31,11.89-6.22,17.84H572l6.23,17.85H561.56l-6.27-17.85H547l-6.23,17.85Zm43.68-29.74,2.09-5.95H553.24l-2.09,5.95Z" transform="translate(-8.15 -358.41)"/><path class="cls-1" d="M191.72,362.49a4,4,0,0,0,3.85,3.86,64,64,0,0,1,61.69,58.59,4,4,0,0,0,4.06,3.66,4,4,0,0,0,3.85-4.28,72,72,0,0,0-69.37-65.91,4,4,0,0,0-3,1.22,4,4,0,0,0-1.09,2.86m1,38.85a4,4,0,0,0,3.51,3.84,25.26,25.26,0,0,1,22.21,21.1,3.93,3.93,0,0,0,4,3.3,4,4,0,0,0,3.81-4.64,33.23,33.23,0,0,0-29.1-27.66,4,4,0,0,0-4.44,4.06" transform="translate(-8.15 -358.41)"/><path class="cls-1" d="M192.22,381.86v.07a4,4,0,0,0,3.77,3.83,44.59,44.59,0,0,1,41.86,39.78,4,4,0,0,0,4,3.56H242a4,4,0,0,0,3.82-4.36,52.61,52.61,0,0,0-49.38-46.93,4,4,0,0,0-4.17,4.05" transform="translate(-8.15 -358.41)"/><path class="cls-1" d="M197.7,432a8,8,0,1,1,8-8" transform="translate(-8.15 -358.41)"/><path class="cls-1" d="M205.72,423.93a8,8,0,0,1-8,8" transform="translate(-8.15 -358.41)"/></svg>