<?xml version="1.0" encoding="utf-8"?>
<!-- Generator: Adobe Illustrator 16.0.0, SVG Export Plug-In . SVG Version: 6.00 Build 0)  -->
<!DOCTYPE svg PUBLIC "-//W3C//DTD SVG 1.1//EN" "http://www.w3.org/Graphics/SVG/1.1/DTD/svg11.dtd">
<svg version="1.1" id="Layer_1" xmlns="http://www.w3.org/2000/svg" xmlns:xlink="http://www.w3.org/1999/xlink" x="0px" y="0px"
	 width="250px" height="170px" viewBox="0 0 250 170" style="enable-background:new 0 0 250 170;" xml:space="preserve">
<style type="text/css">
<![CDATA[
	.st0{fill:#808285;}
	.st1{fill:#FFFFFF;}
]]>
</style>
<path class="st0" d="M11.5,142.9v-21.4H7.1V119h11.5v2.4h-4.4v21.4H11.5z"/>
<path class="st0" d="M32.3,129.6v2.4h-5.8v8.5h7.2v2.4h-9.8V119h9.8v2.4h-7.2v8.2H32.3z"/>
<path class="st0" d="M42.2,138l-0.9,4.8h-2.5l4.6-23.9h3.9l4.6,23.9h-2.7l-0.9-4.8H42.2z M42.5,135.8h5.3L45.2,122L42.5,135.8z"/>
<path class="st0" d="M66.1,142.8h-2.6l-4-19v19h-2.3V119H61l3.9,19.1l3.8-19.1h3.7v23.9h-2.5v-19.2L66.1,142.8z"/>
<path class="st1" d="M93.2,124.5v0.9c0,2.5-0.7,4-2.4,4.8c2,0.8,2.8,2.6,2.8,5.1v1.9c0,3.7-1.9,5.7-5.7,5.7H82V119h5.7
	C91.5,119,93.2,120.8,93.2,124.5z M85.7,122.4v6.3h1.5c1.4,0,2.3-0.6,2.3-2.5v-1.3c0-1.7-0.6-2.5-1.9-2.5H85.7z M85.7,132.1v7.3h2.1
	c1.3,0,1.9-0.6,1.9-2.4V135c0-2.2-0.7-2.9-2.4-2.9H85.7z"/>
<path class="st1" d="M99.2,119h3.8v20.5h6.2v3.4h-9.9V119z"/>
<path class="st1" d="M126.3,142.9h-3.8l-0.6-4.3h-4.6l-0.6,4.3h-3.4L117,119h5.5L126.3,142.9z M117.8,135.3h3.6l-1.8-12.1
	L117.8,135.3z"/>
<path class="st1" d="M142.3,134v3.2c0,3.8-1.9,6-5.6,6c-3.7,0-5.6-2.2-5.6-6v-12.4c0-3.8,1.9-6,5.6-6c3.7,0,5.6,2.2,5.6,6v2.3h-3.5
	v-2.6c0-1.7-0.8-2.4-1.9-2.4c-1.2,0-1.9,0.6-1.9,2.4v12.9c0,1.7,0.8,2.3,1.9,2.3c1.2,0,1.9-0.6,1.9-2.3V134H142.3z"/>
<path class="st1" d="M152.9,133.3l-1.2,2.2v7.3H148V119h3.8v10.4l4.9-10.4h3.8l-5.2,10.6l5.2,13.2h-3.9L152.9,133.3z"/>
<path class="st1" d="M170.4,118.7c3.6,0,5.5,2.2,5.5,6v0.7h-3.5v-1c0-1.7-0.7-2.4-1.9-2.4s-1.9,0.6-1.9,2.4c0,4.9,7.3,5.8,7.3,12.6
	c0,3.8-1.9,6-5.6,6s-5.6-2.2-5.6-6v-1.5h3.5v1.7c0,1.7,0.8,2.3,1.9,2.3c1.2,0,1.9-0.6,1.9-2.3c0-4.9-7.3-5.8-7.3-12.6
	C164.9,120.9,166.8,118.7,170.4,118.7z"/>
<path class="st1" d="M185.3,142.9h-3.8V119h3.8v10.2h4.3V119h3.8v23.9h-3.8v-10.2h-4.3V142.9z"/>
<path class="st1" d="M203.3,129h5.1v3.4h-5.1v7h6.5v3.4h-10.2V119h10.2v3.4h-6.5V129z"/>
<path class="st1" d="M219.2,129h5.1v3.4h-5.1v7h6.5v3.4h-10.2V119h10.2v3.4h-6.5V129z"/>
<path class="st1" d="M242.5,124.9v3.1c0,3.8-1.8,5.9-5.6,5.9h-1.8v9h-3.8V119h5.5C240.7,119,242.5,121.1,242.5,124.9z M235.2,122.4
	v8.1h1.8c1.2,0,1.8-0.5,1.8-2.3v-3.6c0-1.7-0.6-2.3-1.8-2.3H235.2z"/>
<g>
	<path class="st0" d="M88.2,158.2v0.4h-1.5v-0.5c0-1.3-0.5-2-1.6-2c-1.1,0-1.6,0.7-1.6,2c0,3.1,4.7,3.4,4.7,7.4c0,2.1-1,3.5-3.2,3.5
		c-2.1,0-3.1-1.4-3.1-3.5v-0.8h1.5v0.9c0,1.3,0.5,2,1.6,2c1.1,0,1.6-0.7,1.6-2c0-3.1-4.7-3.4-4.7-7.4c0-2.2,1-3.5,3.1-3.5
		C87.2,154.7,88.2,156.1,88.2,158.2z"/>
	<path class="st0" d="M97.4,161v1.4H94v5h4.2v1.4h-5.8v-14h5.8v1.4H94v4.8H97.4z"/>
	<path class="st0" d="M105.5,154.9c2.2,0,3.1,1.1,3.1,3.2v1.1c0,1.5-0.5,2.5-1.7,2.9c1.3,0.4,1.8,1.4,1.8,2.9v2.2
		c0,0.6,0,1.2,0.3,1.7h-1.6c-0.2-0.4-0.3-0.8-0.3-1.7v-2.2c0-1.6-0.7-2.1-2-2.1h-1.1v6h-1.6v-14H105.5z M105.1,161.4
		c1.2,0,2-0.4,2-1.9v-1.3c0-1.3-0.5-1.9-1.6-1.9h-1.5v5.2H105.1z"/>
	<path class="st0" d="M114.6,154.9v14h-1.6v-14H114.6z"/>
	<path class="st0" d="M118.9,158.2c0-2.1,1.1-3.5,3.2-3.5c2.2,0,3.2,1.4,3.2,3.5v7.2c0,2.1-1.1,3.5-3.2,3.5c-2.1,0-3.2-1.4-3.2-3.5
		V158.2z M120.4,165.5c0,1.3,0.5,2,1.7,2c1.1,0,1.7-0.7,1.7-2v-7.4c0-1.3-0.5-2-1.7-2c-1.1,0-1.7,0.8-1.7,2V165.5z"/>
	<path class="st0" d="M131.1,165.5c0,1.3,0.5,2,1.6,2c1.1,0,1.6-0.8,1.6-2v-10.7h1.5v10.6c0,2.1-1,3.5-3.1,3.5
		c-2.1,0-3.1-1.4-3.1-3.5v-10.6h1.5V165.5z"/>
	<path class="st0" d="M146.2,158.2v0.4h-1.5v-0.5c0-1.3-0.5-2-1.6-2c-1.1,0-1.6,0.7-1.6,2c0,3.1,4.7,3.4,4.7,7.4
		c0,2.1-1,3.5-3.2,3.5c-2.1,0-3.1-1.4-3.1-3.5v-0.8h1.5v0.9c0,1.3,0.5,2,1.6,2c1.1,0,1.6-0.7,1.6-2c0-3.1-4.7-3.4-4.7-7.4
		c0-2.2,1-3.5,3.1-3.5C145.2,154.7,146.2,156.1,146.2,158.2z"/>
	<path class="st0" d="M158.3,168.8v-12.6h-2.6v-1.4h6.7v1.4h-2.6v12.6H158.3z"/>
	<path class="st0" d="M166.1,158.2c0-2.1,1.1-3.5,3.2-3.5c2.2,0,3.2,1.4,3.2,3.5v7.2c0,2.1-1.1,3.5-3.2,3.5c-2.1,0-3.2-1.4-3.2-3.5
		V158.2z M167.7,165.5c0,1.3,0.5,2,1.7,2c1.1,0,1.7-0.7,1.7-2v-7.4c0-1.3-0.5-2-1.7-2c-1.1,0-1.7,0.8-1.7,2V165.5z"/>
	<path class="st0" d="M179,163.8l-3-9h1.6l2.2,6.9l2.2-6.9h1.5l-3,9v5H179V163.8z"/>
	<path class="st0" d="M193.4,158.2v0.4h-1.5v-0.5c0-1.3-0.5-2-1.6-2c-1.1,0-1.6,0.7-1.6,2c0,3.1,4.7,3.4,4.7,7.4
		c0,2.1-1,3.5-3.2,3.5c-2.1,0-3.1-1.4-3.1-3.5v-0.8h1.5v0.9c0,1.3,0.5,2,1.6,2c1.1,0,1.6-0.7,1.6-2c0-3.1-4.7-3.4-4.7-7.4
		c0-2.2,1-3.5,3.1-3.5C192.4,154.7,193.4,156.1,193.4,158.2z"/>
</g>
<g>
	<path class="st1" d="M123.4,87.7l-3.9-8.4l5.3,6.9l-2.5-84L95,16.9l-1.3,6l-13.4,4.6L65.2,40.2l-0.4,3.8l14,1.8l0.1,0l14.6-2.4
		l3.9,9.3l13.2,37.9l0.1,0.2l14.2,11.1L123.4,87.7z M96,17.7l25.2-13.5l2.3,78.4l-6.3-8.3l-6.9-35.4l-17.5-6.7l1.8-8.4l0,0l0,0
		L96,17.7z M78.9,44.5L66,42.9l0.2-2.1l14.5-12.2l12.6-4.3l-1.9,8.7l2.3,0.9c-0.3,0.8-0.7,2.9,0.5,5.9l12.7,2.7l0.1,0.3l7.1,23.1
		l-7.5-21.8L93.8,42L78.9,44.5z M111.6,89.9L98.5,52.1l-3.7-8.8l11.1,1.8l10.2,29.6l0,0.1l0.1,0.1l6.1,13.2l1.1,11.1L111.6,89.9z"/>
	<path class="st1" d="M126.2,87.7l3.9-8.4l-5.3,6.9l2.5-84l27.3,14.7l1.3,6l13.4,4.6l15.1,12.7l0.4,3.8l-14,1.8l-0.1,0l-14.6-2.4
		l-3.9,9.3l-13.2,37.9l-0.1,0.2l-14.2,11.1L126.2,87.7z M153.6,17.7L128.5,4.1l-2.3,78.4l6.3-8.3l6.9-35.4l17.5-6.7l-1.8-8.4l0,0
		l0,0L153.6,17.7z M170.8,44.5l12.8-1.6l-0.2-2.1l-14.5-12.2l-12.6-4.3l1.9,8.7l-2.3,0.9c0.3,0.8,0.7,2.9-0.5,5.9l-12.7,2.7
		l-0.1,0.3l-7.1,23.1l7.5-21.8l12.9-2.1L170.8,44.5z M138,89.9l13.2-37.8l3.7-8.8l-11.1,1.8l-10.2,29.6l0,0.1l-0.1,0.1L127.4,88
		l-1.1,11.1L138,89.9z"/>
</g>
</svg>
