<?xml version="1.0" encoding="UTF-8"?><svg id="Ebene_1" xmlns="http://www.w3.org/2000/svg" viewBox="0 0 809 144"><path d="m182,11l92,62.42h0l91-61.39v130.97h-26V61.14l-65,46.04-64-42.97v78.79l-27.24.3-.76-132.29h0Z"/><path d="m405,115h135c.18-.21,12,0,12,0,7,0,8-8,8-11s0-13-10-13h-102l86-52h-129V12h181v26l-44,27c20-1,46.24,10.43,46.24,37,0,19.44-12.24,42-40.24,42-11.02,0-143-1-143-1v-28Z"/><path d="m653,90.79v23.64h156v27.58h-184v-51.21c0-.33.01-.66.03-.98.25-7.22,3.33-13.74,8.17-18.52,5.07-4.98,12.07-8.08,19.8-8.08h119c10,0,9-12.8,9-12.8,0-6.89-6-10.83-12-10.83h-143V12.01h150c29,0,33,29.9,33,32.76v14.26c0,2.86-2,30.79-32,31.77h-124Z"/><path d="m83,0h0l80,142-31,1-20-37h-60l-21,37H0L83,0Zm12,75l-12-22-13,22h25Z"/><path d="m625.03,91c-.02.33-.03.66-.03,1v-1h.03Z"/></svg>